# xmcd CD Database Entry
#
# Track frame offsets:
# 225
# 17559
# 32045
# 45342
# 68781
# 81168
# 102713
# 114032
# 144899
# 173685
# 189728
# 199021
# 224587
# 236641
# 256682
# 274122
#
# Disc length: 4044 seconds
#
# Revision: 2
# Processed by: cddbd v1.4PL0 Copyright (c) Steve Scherf et al.
# Submitted via: tcd 2.0b
#
DISCID=d80fc910
DTITLE=Jazz Samba Sampler - Jazz Samba
DYEAR=1900
DGENRE=
TTITLE0=Ella Fitzgerald - The Girl From Ipanema
TTITLE1=Charlie Byrd - Meditation
TTITLE2=Sarah Vaughan - Triste
TTITLE3=Azymuth - Samba De Barra
TTITLE4=Ella Fitzgerald - Water To Drink (Agua De Beber)
TTITLE5=Vince Guaraldi Trio - Generique
TTITLE6=Les Baxter - A Felicidade
TTITLE7=Milt Jackson, Joe Pass, Ray Brown - Wave
TTITLE8=Joe Pass, Paulinho Da Costa - Corcovado
TTITLE9=Sarah Vaughan - Copacabana
TTITLE10=Charlie Byrd - Samba De Minha Terra (Samba Of My Country)
TTITLE11=Vince Guaraldi Trio - Samba De Orpheus
TTITLE12=Les Baxter - Canta De Ossanha
TTITLE13=Ray Barretto - Manha De Carneval (Theme From Black Orpheus)
TTITLE14=Ella Fitzgerald - One Note Samba
TTITLE15=Cal Tadjer - Reza
EXTD=(P)1998
EXTT0=
EXTT1=
EXTT2=
EXTT3=
EXTT4=
EXTT5=
EXTT6=
EXTT7=
EXTT8=
EXTT9=
EXTT10=
EXTT11=
EXTT12=
EXTT13=
EXTT14=
EXTT15=
PLAYORDER=
